# xmcd
#
# Track frame offsets:
#   150
#   18067
#   38700
#   55480
#   87020
#   104200
#   121207
#   133080
#   143500
#   155925
#   167920
#   178897
#   194300
#   206970
#   223747
#   237917
#   254677
#   269707
#
# Disc length: 3848 seconds
#
# Revision: 0
# Processed by: cddbd v1.4PL0 Copyright (c) Steve Scherf et al.
# Submitted via: uFREEDB 1.6.0
#
DISCID=1c0f0612
DTITLE=Various Artist - Romantic Moods vol.2
DYEAR=1900
DGENRE=Blues
TTITLE0=Best thing that ever happened to me
TTITLE1=Yesterday
TTITLE2=Michelle
TTITLE3=MacArthur Park
TTITLE4=Over the rainbow
TTITLE5=When you wish upon a star
TTITLE6=Windmills of your mind
TTITLE7=Put your head on my shoulder
TTITLE8=All the way
TTITLE9=Love me tender
TTITLE10=Mon chere amour
TTITLE11=Strangers in the night
TTITLE12=You are the sunshine of my life
TTITLE13=Evergreen
TTITLE14=Deep Purple
TTITLE15=Cara Mia
TTITLE16=Guantanamera
TTITLE17=Hawaiian wedding song
EXTD=
EXTT0=
EXTT1=
EXTT2=
EXTT3=
EXTT4=
EXTT5=
EXTT6=
EXTT7=
EXTT8=
EXTT9=
EXTT10=
EXTT11=
EXTT12=
EXTT13=
EXTT14=
EXTT15=
EXTT16=
EXTT17=
PLAYORDER=
